<svg width="64" height="64" viewBox="0 0 64 64" fill="none" xmlns="http://www.w3.org/2000/svg">
<path d="M22.3329 24.3329L31.6646 30.1653L40.9964 24.3329H22.3329ZM22.3329 40.6634C21.6914 40.6634 21.142 40.4348 20.6847 39.9775C20.2275 39.5203 19.9992 38.9713 20 38.3305V24.3329C20 23.6914 20.2286 23.142 20.6859 22.6847C21.1431 22.2275 21.6922 21.9992 22.3329 22H40.9964C41.6379 22 42.1873 22.2286 42.6446 22.6859C43.1018 23.1431 43.3301 23.6922 43.3293 24.3329V29.407L42.1628 30.5735L40.9964 31.74V26.6659L32.277 32.1191C32.2187 32.158 32.0146 32.2163 31.6646 32.294C31.5674 32.294 31.4652 32.2797 31.3579 32.2509C31.2505 32.2221 31.1487 32.1782 31.0522 32.1191L22.3329 26.6659V38.3305H28.3402L30.6731 40.6634H22.3329ZM36.2722 39.7303L42.0462 33.9563C42.26 33.7424 42.5322 33.6355 42.8627 33.6355C43.1932 33.6355 43.4654 33.7424 43.6792 33.9563C43.8931 34.1701 44 34.4423 44 34.7728C44 35.1033 43.8931 35.3755 43.6792 35.5893L37.0887 42.1798C36.8554 42.4131 36.5832 42.5298 36.2722 42.5298C35.9611 42.5298 35.6889 42.4131 35.4556 42.1798L32.1312 38.8554C31.9174 38.6416 31.8104 38.3694 31.8104 38.0389C31.8104 37.7084 31.9174 37.4362 32.1312 37.2224C32.3451 37.0085 32.6173 36.9016 32.9478 36.9016C33.2783 36.9016 33.5504 37.0085 33.7643 37.2224L36.2722 39.7303Z" fill="#525354"/>
</svg>
