<svg width="64" height="64" viewBox="0 0 64 64" fill="none" xmlns="http://www.w3.org/2000/svg">
<path d="M22.1818 38.4545C21.5818 38.4545 21.068 38.2407 20.6404 37.8131C20.2127 37.3855 19.9993 36.872 20 36.2727V23.1818C20 22.5818 20.2138 22.068 20.6415 21.6404C21.0691 21.2127 21.5825 20.9993 22.1818 21H39.6364C40.2364 21 40.7502 21.2138 41.1778 21.6415C41.6055 22.0691 41.8189 22.5825 41.8182 23.1818V28.6364H39.6364V25.3636L31.4818 30.4636C31.3909 30.5182 31.2953 30.5593 31.1949 30.5869C31.0945 30.6145 30.9993 30.628 30.9091 30.6273C30.8182 30.6273 30.7225 30.6138 30.6222 30.5869C30.5218 30.56 30.4265 30.5189 30.3364 30.4636L22.1818 25.3636V36.2727H33.0909V38.4545H22.1818ZM30.9091 28.6364L39.6364 23.1818H22.1818L30.9091 28.6364ZM39.6364 42.8182C38.4364 42.8182 37.4091 42.3909 36.5545 41.5364C35.7 40.6818 35.2727 39.6545 35.2727 38.4545V33.5455C35.2727 32.7818 35.5364 32.1364 36.0636 31.6091C36.5909 31.0818 37.2364 30.8182 38 30.8182C38.7636 30.8182 39.4091 31.0818 39.9364 31.6091C40.4636 32.1364 40.7273 32.7818 40.7273 33.5455V37.3636C40.7273 37.6727 40.6225 37.932 40.4131 38.1415C40.2036 38.3509 39.9447 38.4553 39.6364 38.4545C39.3273 38.4545 39.068 38.3498 38.8585 38.1404C38.6491 37.9309 38.5447 37.672 38.5455 37.3636V33.5455C38.5455 33.4 38.4909 33.2727 38.3818 33.1636C38.2727 33.0545 38.1455 33 38 33C37.8545 33 37.7273 33.0545 37.6182 33.1636C37.5091 33.2727 37.4545 33.4 37.4545 33.5455V38.4545C37.4545 39.0545 37.6684 39.5684 38.096 39.996C38.5236 40.4236 39.0371 40.6371 39.6364 40.6364C40.2364 40.6364 40.7502 40.4225 41.1778 39.9949C41.6055 39.5673 41.8189 39.0538 41.8182 38.4545V35.1818C41.8182 34.8727 41.9229 34.6135 42.1324 34.404C42.3418 34.1945 42.6007 34.0902 42.9091 34.0909C43.2182 34.0909 43.4774 34.1956 43.6869 34.4051C43.8964 34.6145 44.0007 34.8735 44 35.1818V38.4545C44 39.6545 43.5727 40.6818 42.7182 41.5364C41.8636 42.3909 40.8364 42.8182 39.6364 42.8182Z" fill="#525354"/>
</svg>
