<svg width="24" height="27" viewBox="0 0 24 27" fill="none" xmlns="http://www.w3.org/2000/svg">
<path id="Vector" d="M23.2268 10.9011L12.9468 0.394398C12.8229 0.269427 12.6754 0.170234 12.5129 0.102543C12.3504 0.034851 12.1762 0 12.0002 0C11.8241 0 11.6499 0.034851 11.4874 0.102543C11.3249 0.170234 11.1774 0.269427 11.0535 0.394398L0.773487 10.9144C0.524736 11.1652 0.32828 11.4628 0.195524 11.7901C0.0627691 12.1175 -0.0036397 12.4679 0.000153819 12.8211V23.9944C-0.00087928 24.6769 0.259851 25.3339 0.728653 25.83C1.19746 26.3261 1.83863 26.6235 2.52015 26.6611H21.4802C22.1617 26.6235 22.8029 26.3261 23.2717 25.83C23.7405 25.3339 24.0012 24.6769 24.0002 23.9944V12.8211C24.0012 12.105 23.7239 11.4165 23.2268 10.9011V10.9011ZM9.33349 23.9944V15.9944H14.6668V23.9944H9.33349ZM21.3335 23.9944H17.3335V14.6611C17.3335 14.3074 17.193 13.9683 16.943 13.7183C16.6929 13.4682 16.3538 13.3277 16.0002 13.3277H8.00015C7.64653 13.3277 7.30739 13.4682 7.05735 13.7183C6.8073 13.9683 6.66682 14.3074 6.66682 14.6611V23.9944H2.66682V12.7677L12.0002 3.2344L21.3335 12.8211V23.9944Z" fill="#F7F7F7"/>
</svg>
