<svg width="64" height="64" viewBox="0 0 64 64" fill="none" xmlns="http://www.w3.org/2000/svg">
<path d="M22.4 42.6C21.74 42.6 21.1748 42.3648 20.7044 41.8944C20.234 41.424 19.9992 40.8592 20 40.2V25.8C20 25.14 20.2352 24.5748 20.7056 24.1044C21.176 23.634 21.7408 23.3992 22.4 23.4H34.52C34.44 23.8 34.4 24.2 34.4 24.6C34.4 25 34.44 25.4 34.52 25.8H22.4L32 31.8L36.38 29.07C36.66 29.33 36.9652 29.5552 37.2956 29.7456C37.626 29.936 37.9708 30.1008 38.33 30.24L32 34.2L22.4 28.2V40.2H41.6V30.48C42.06 30.38 42.49 30.24 42.89 30.06C43.29 29.88 43.66 29.66 44 29.4V40.2C44 40.86 43.7648 41.4252 43.2944 41.8956C42.824 42.366 42.2592 42.6008 41.6 42.6H22.4ZM40.4 28.2C39.4 28.2 38.55 27.85 37.85 27.15C37.15 26.45 36.8 25.6 36.8 24.6C36.8 23.6 37.15 22.75 37.85 22.05C38.55 21.35 39.4 21 40.4 21C41.4 21 42.25 21.35 42.95 22.05C43.65 22.75 44 23.6 44 24.6C44 25.6 43.65 26.45 42.95 27.15C42.25 27.85 41.4 28.2 40.4 28.2Z" fill="#525354"/>
</svg>
